# xmcd
#
# Track frame offsets:
#	150
#	14945
#	33027
#	52122
#	68172
#	86997
#	105147
#	123672
#	144972
#	155847
#	172722
#	185922
#	201897
#
# Disc length: 3064 seconds
#
# Revision: 0
# Processed by: cddbd v1.5.1PL0 Copyright (c) Steve Scherf et al.
# Submitted via: EasyCDDAExtractor 8.0.2.1
#
DISCID=b70bf60d
DTITLE=Mau-Mau - armadillo
DYEAR=1900
DGENRE=Instrumental Rock
TTITLE0=Story Teller
TTITLE1=Bird Lives
TTITLE2=Potato Musician's Blues
TTITLE3=You Gotta Work
TTITLE4=Ain't Got The Boogie
TTITLE5=Terrible With The Names
TTITLE6=Duty Dance
TTITLE7=Critics
TTITLE8=Bad Day Blues
TTITLE9=Flight Fright
TTITLE10=Who Stole My Car
TTITLE11=Overalls
TTITLE12=Money Laundromat
EXTD=
EXTT0=
EXTT1=
EXTT2=
EXTT3=
EXTT4=
EXTT5=
EXTT6=
EXTT7=
EXTT8=
EXTT9=
EXTT10=
EXTT11=
EXTT12=
PLAYORDER=
